<mxfile host="app.diagrams.net" agent="Mozilla/5.0 (Windows NT 10.0; Win64; x64) AppleWebKit/537.36 (KHTML, like Gecko) Chrome/131.0.0.0 Safari/537.36" version="25.0.1">
  <diagram name="Page-1" id="fkR9zFDDgrfsMQm2Oscb">
    <mxGraphModel dx="794" dy="412" grid="1" gridSize="10" guides="1" tooltips="1" connect="1" arrows="1" fold="1" page="1" pageScale="1" pageWidth="850" pageHeight="1100" math="0" shadow="0">
      <root>
        <mxCell id="0" />
        <mxCell id="1" parent="0" />
        <mxCell id="HYPAEpeCDw18aiGVwfPe-1" value="&lt;font style=&quot;font-size: 20px;&quot;&gt;Order Service&lt;/font&gt;" style="rounded=0;whiteSpace=wrap;html=1;" vertex="1" parent="1">
          <mxGeometry x="220" y="20" width="400" height="60" as="geometry" />
        </mxCell>
        <mxCell id="HYPAEpeCDw18aiGVwfPe-2" value="Orders" style="swimlane;fontStyle=0;childLayout=stackLayout;horizontal=1;startSize=30;horizontalStack=0;resizeParent=1;resizeParentMax=0;resizeLast=0;collapsible=1;marginBottom=0;whiteSpace=wrap;html=1;shadow=1;" vertex="1" parent="1">
          <mxGeometry x="20" y="130" width="370" height="630" as="geometry" />
        </mxCell>
        <mxCell id="HYPAEpeCDw18aiGVwfPe-3" value="&lt;div style=&quot;line-height: 210%;&quot;&gt;&lt;div&gt;&lt;div&gt;ID : String&lt;/div&gt;&lt;div&gt;Order Number : String&lt;/div&gt;&lt;div&gt;Grand Total : Double&lt;/div&gt;&lt;div&gt;Tax : Double&lt;/div&gt;&lt;div&gt;Discount : Double&lt;/div&gt;&lt;div&gt;Shipping Fee : Double&lt;/div&gt;&lt;div&gt;Payable Total : Double&lt;/div&gt;&lt;div&gt;Customer ID : String&lt;/div&gt;&lt;div&gt;Billing Address : String&lt;/div&gt;&lt;div&gt;Shipping Address : String&lt;/div&gt;&lt;div&gt;Shipping Pincode : String&lt;/div&gt;&lt;div&gt;Customer Email : String&lt;/div&gt;&lt;div&gt;Customer Phone : String&lt;/div&gt;&lt;div&gt;Customer Name : String&lt;/div&gt;&lt;div&gt;Status : Enum (OrderStatusEnum)&lt;/div&gt;&lt;div&gt;Status Log : String&lt;/div&gt;&lt;div&gt;Logistics Code Name : String&lt;/div&gt;&lt;div&gt;Logistics Tracking ID : String&lt;/div&gt;&lt;div&gt;Creation Date : ZonedDateTime&lt;/div&gt;&lt;div&gt;Last Modified Date : ZonedDateTime&lt;/div&gt;&lt;div&gt;Delivery Date : ZonedDateTime&lt;/div&gt;&lt;div&gt;Pickup Date : ZonedDateTime&lt;/div&gt;&lt;div&gt;Is Consumed : Boolean&lt;/div&gt;&lt;/div&gt;&lt;/div&gt;" style="text;strokeColor=none;fillColor=none;align=left;verticalAlign=middle;spacingLeft=4;spacingRight=4;overflow=hidden;points=[[0,0.5],[1,0.5]];portConstraint=eastwest;rotatable=0;whiteSpace=wrap;html=1;" vertex="1" parent="HYPAEpeCDw18aiGVwfPe-2">
          <mxGeometry y="30" width="370" height="600" as="geometry" />
        </mxCell>
        <mxCell id="HYPAEpeCDw18aiGVwfPe-4" value="Order Items" style="swimlane;fontStyle=0;childLayout=stackLayout;horizontal=1;startSize=30;horizontalStack=0;resizeParent=1;resizeParentMax=0;resizeLast=0;collapsible=1;marginBottom=0;whiteSpace=wrap;html=1;shadow=1;" vertex="1" parent="1">
          <mxGeometry x="410" y="130" width="370" height="600" as="geometry" />
        </mxCell>
        <mxCell id="HYPAEpeCDw18aiGVwfPe-5" value="&lt;div style=&quot;line-height: 210%;&quot;&gt;&lt;div&gt;ID : String&lt;/div&gt;&lt;div&gt;Order Item Number : String&lt;/div&gt;&lt;div&gt;Product ID : String&lt;/div&gt;&lt;div&gt;SKU : String&lt;/div&gt;&lt;div&gt;Unit Price : Double&lt;/div&gt;&lt;div&gt;Sales Price : Double&lt;/div&gt;&lt;div&gt;Discount : Double&lt;/div&gt;&lt;div&gt;Shipping Fee : Double&lt;/div&gt;&lt;div&gt;Tax : Double&lt;/div&gt;&lt;div&gt;Quantity : Long&lt;/div&gt;&lt;div&gt;Total Price : Double&lt;/div&gt;&lt;div&gt;Total Sales Price : Double&lt;/div&gt;&lt;div&gt;Status : Enum (OrderStatusEnum)&lt;/div&gt;&lt;div&gt;Status Log : String&lt;/div&gt;&lt;div&gt;Logistics Code Name : String&lt;/div&gt;&lt;div&gt;Logistics Tracking ID : String&lt;/div&gt;&lt;div&gt;Consignment Item Number : String&lt;/div&gt;&lt;div&gt;Consignment Number : String&lt;/div&gt;&lt;div&gt;Order Number : String&lt;/div&gt;&lt;div&gt;Warehouse Number : String&lt;/div&gt;&lt;div&gt;Creation Date : ZonedDateTime&lt;/div&gt;&lt;div&gt;Last Modified Date : ZonedDateTime&lt;/div&gt;&lt;/div&gt;" style="text;strokeColor=none;fillColor=none;align=left;verticalAlign=middle;spacingLeft=4;spacingRight=4;overflow=hidden;points=[[0,0.5],[1,0.5]];portConstraint=eastwest;rotatable=0;whiteSpace=wrap;html=1;" vertex="1" parent="HYPAEpeCDw18aiGVwfPe-4">
          <mxGeometry y="30" width="370" height="570" as="geometry" />
        </mxCell>
        <mxCell id="HYPAEpeCDw18aiGVwfPe-6" value="Order Status Enum" style="swimlane;fontStyle=0;childLayout=stackLayout;horizontal=1;startSize=30;horizontalStack=0;resizeParent=1;resizeParentMax=0;resizeLast=0;collapsible=1;marginBottom=0;whiteSpace=wrap;html=1;" vertex="1" parent="1">
          <mxGeometry x="280" y="790" width="230" height="410" as="geometry" />
        </mxCell>
        <mxCell id="HYPAEpeCDw18aiGVwfPe-7" value="&lt;div style=&quot;line-height: 200%;&quot;&gt;&lt;div style=&quot;line-height: 200%;&quot;&gt;&lt;div style=&quot;line-height: 200%;&quot;&gt;&lt;div style=&quot;line-height: 200%;&quot;&gt;&lt;div style=&quot;line-height: 200%;&quot;&gt;DRAFT&lt;/div&gt;&lt;div style=&quot;line-height: 200%;&quot;&gt;CREATED&lt;/div&gt;&lt;div style=&quot;line-height: 200%;&quot;&gt;PACKED&lt;/div&gt;&lt;div style=&quot;line-height: 200%;&quot;&gt;SHIPPED&lt;/div&gt;&lt;div style=&quot;line-height: 200%;&quot;&gt;OUT_FOR_DELIVERY&lt;/div&gt;&lt;div style=&quot;line-height: 200%;&quot;&gt;DELIVERED&lt;/div&gt;&lt;div style=&quot;line-height: 200%;&quot;&gt;RETURN_REQUEST_CREATED&lt;/div&gt;&lt;div style=&quot;line-height: 200%;&quot;&gt;REPLACEMENT_REQUEST_CREATED&lt;/div&gt;&lt;div style=&quot;line-height: 200%;&quot;&gt;RETURN_REQUEST_CONFIRMED&lt;/div&gt;&lt;div style=&quot;line-height: 200%;&quot;&gt;REPLACEMENT_REQUEST_CONFIRMED&lt;/div&gt;&lt;div style=&quot;line-height: 200%;&quot;&gt;OUT_FOR_PICKUP&lt;/div&gt;&lt;div style=&quot;line-height: 200%;&quot;&gt;PICKED_UP&lt;/div&gt;&lt;div style=&quot;line-height: 200%;&quot;&gt;RETURNED&lt;/div&gt;&lt;div style=&quot;line-height: 200%;&quot;&gt;REPLACED&lt;/div&gt;&lt;div style=&quot;line-height: 200%;&quot;&gt;CANCELLED&lt;/div&gt;&lt;/div&gt;&lt;/div&gt;&lt;/div&gt;&lt;/div&gt;" style="text;strokeColor=none;fillColor=none;align=left;verticalAlign=middle;spacingLeft=4;spacingRight=4;overflow=hidden;points=[[0,0.5],[1,0.5]];portConstraint=eastwest;rotatable=0;whiteSpace=wrap;html=1;" vertex="1" parent="HYPAEpeCDw18aiGVwfPe-6">
          <mxGeometry y="30" width="230" height="380" as="geometry" />
        </mxCell>
      </root>
    </mxGraphModel>
  </diagram>
</mxfile>
